# xmcd
#
# Track frame offsets:
#	150
#	30828
#	52450
#	94557
#	125397
#	159344
#	178465
#	203250
#	221233
#	249411
#	268473
#	293480
#	325127
#
# Disc length: 4560 seconds
# Revision: 0
# Processed by: cddbd v1.5.2PL0 Copyright (c) Steve Scherf et al.
# Submitted via: dBpowerAMP V12.0
#
DISCID=bc11ce0d
DTITLE=Dave Alvin and The Guilty Men - Out In California
DYEAR=2002
DGENRE=Americana
TTITLE0=Out In California
TTITLE1=Haley's Comet
TTITLE2=Little Honey/Who Do You Love
TTITLE3=Abilene
TTITLE4=Don't Let Your Deal Go Down
TTITLE5=Highway 99
TTITLE6=Andersonville
TTITLE7=All 'Round Man
TTITLE8=Blue Boulevard
TTITLE9=Wanda And Duane
TTITLE10=Fourth Of July
TTITLE11=American Music
TTITLE12=Everything's Gonna Be Alright
EXTD=
EXTT0=
EXTT1=
EXTT2=
EXTT3=
EXTT4=
EXTT5=
EXTT6=
EXTT7=
EXTT8=
EXTT9=
EXTT10=
EXTT11=
EXTT12=
PLAYORDER=
